# AST/ASF file generated using VICON BodyLanguage
# -----------------------------------------------
:version 1.10
:name VICON
:units
  mass 1.0
  length 0.45
  angle deg
:documentation
   .ast/.asf automatically generated from VICON data using
   VICON BodyBuilder and BodyLanguage model FoxedUp or BRILLIANT.MOD
:root
   order TX TY TZ RX RY RZ
   axis XYZ
   position 0 0 0  
   orientation 0 0 0 
:bonedata
  begin
     id 1 
     name lhipjoint
     direction 0.78388 -0.462562 0.414208 
     length 3.01181 
     axis 0 0 0  XYZ
  end
  begin
     id 2 
     name lfemur
     direction 0.34202 -0.939693 0  
     length 6.04673  
     axis 0 0 20  XYZ
    dof rx ry rz
    limits (-160.0 20.0)
           (-70.0 70.0)
           (-60.0 70.0)
  end
  begin
     id 3 
     name ltibia
     direction 0.34202 -0.939693 0   
     length 7.211   
     axis 0 0 20   XYZ
    dof rx
    limits (-10.0 170.0)
  end
  begin
     id 4 
     name lfoot
     direction 0.121887 -0.334882 0.934344   
     length 2.13567   
     axis -90 7.62852e-016 20   XYZ
    dof rx rz
    limits (-45.0 90.0)
           (-70.0 20.0)
  end
  begin
     id 5 
     name ltoes
     direction 1.53555e-011 -4.2179e-011 1   
     length 1.05957   
     axis -90 7.62852e-016 20   XYZ
    dof rx
    limits (-90.0 20.0)
  end
  begin
     id 6 
     name rhipjoint
     direction -0.769387 -0.475875 0.426129   
     length 2.92756  
     axis 0 0 0  XYZ 
  end
  begin
     id 7 
     name rfemur
     direction -0.34202 -0.939693 0   
     length 6.35468   
     axis 0 0 -20   XYZ
    dof rx ry rz
    limits (-160.0 20.0)
           (-70.0 70.0)
           (-70.0 60.0)
  end
  begin
     id 8 
     name rtibia
     direction -0.34202 -0.939693 0   
     length 7.37886   
     axis 0 0 -20   XYZ
    dof rx
    limits (-10.0 170.0)
 end
 begin
     id 9 
     name rfoot
     direction -0.101763 -0.279592 0.954711   
     length 2.21478  
     axis -90 -7.62852e-016 -20   XYZ
    dof rx rz
    limits (-45.0 90.0)
           (-20.0 70.0)
  end
  begin
     id 10 
     name rtoes
     direction -1.53494e-011 -4.21851e-011 1   
     length 1.10506   
     axis -90 -7.62852e-016 -20   XYZ
    dof rx
    limits (-90.0 20.0)
  end
  begin
     id 11 
     name lowerback
     direction 0.00747405 0.999267 0.0375481   
     length 2.13259   
     axis 0 0 0   XYZ
    dof rx ry rz
    limits (-20.0 45.0)
           (-30.0 30.0)
           (-30.0 30.0)
  end
  begin
     id 12 
     name upperback
     direction 0.00661626 0.996177 0.0871029   
     length 2.10528   
     axis 0 0 0   XYZ
    dof rx ry rz
    limits (-20.0 45.0)
           (-30.0 30.0)
           (-30.0 30.0)
  end
  begin
     id 13 
     name thorax
     direction 0.00320659 0.997679 0.0680167   
     length 2.11338   
     axis 0 0 0   XYZ
    dof rx ry rz
    limits (-20.0 45.0)
           (-30.0 30.0)
           (-30.0 30.0)
  end
  begin
     id 14 
     name lowerneck
     direction 0.0374841 0.973033 0.227602   
     length 1.42765   
     axis 0 0 0   XYZ
    dof rx ry rz
    limits (-20.0 45.0)
           (-30.0 30.0)
           (-30.0 30.0)
  end
  begin
     id 15 
     name upperneck
     direction 0.00481585 0.989155 -0.146795   
     length 1.47593   
     axis 0 0 0   XYZ
    dof rx ry rz
    limits (-20.0 45.0)
           (-30.0 30.0)
           (-30.0 30.0)
  end
  begin
     id 16
     name head
     direction -0.00292522 0.997206 -0.0746423  
     length 1.48116  
     axis 0 0 0   XYZ
    dof rx ry rz
    limits (-20.0 45.0)
           (-30.0 30.0)
           (-30.0 30.0)
  end
  begin
     id 17 
     name lclavicle
     direction 0.951444 0.305606 0.0368784  
     length 3.01855  
     axis 0 0 0   XYZ
    dof ry rz
    limits (-20.0 10.0)
           (0.0 20.0)
  end
  begin
     id 18 
     name lhumerus
     direction 1 -4.48977e-011 2.61664e-027   
     length 5.52731   
     axis 180 -30 -90   XYZ
    dof rx ry rz
    limits (-60.0 90.0)
           (-90.0 90.0)
           (-90.0 90.0)
  end
  begin
     id 19
     name lradius
     direction 1 -4.48944e-011 8.22157e-027   
     length 3.11059   
     axis 180 -30 -90   XYZ
    dof rx
    limits (-10.0 170.0)
  end
  begin
     id 20
     name lwrist
     direction 1 -4.48976e-011 1.5779e-026   
     length 1.5553   
     axis -1.15221e-014 90 90   XYZ
    dof ry
    limits (-180.0 0.0)
 end
  begin
     id 21 
     name lhand
     direction 1 -4.49025e-011 3.1558e-026   
     length 0.419626   
     axis -2.01367e-014 90 90   XYZ
    dof rx rz
    limits (-90.0 90.0)
           (-45.0 45.0)
  end
  begin
     id 22 
     name lfingers
     direction 1 -4.4904e-011 6.31161e-026   
     length 0.338313   
     axis -4.02734e-014 90 90   XYZ
    dof rx
    limits (0.0 90.0)
  end
  begin
     id 23
     name lthumb
     direction 0.707107 -6.35004e-011 0.707107   
     length 0.485752   
     axis -90 45 2.85299e-015   XYZ
    dof rx rz
    limits (-45.0 45.0)
           (-45.0 45.0)
  end
  begin
     id 24 
     name rclavicle
     direction -0.968876 0.223791 0.105816   
     length 3.04177  
     axis 0 0 0   XYZ 
    dof ry rz
    limits (-10.0 20.0)
           (-20.0 0.0)
  end
  begin
     id 25 
     name rhumerus
     direction -1 -4.48962e-011 -1.01384e-027  
     length 5.25396   
     axis 180 30 90   XYZ
    dof rx ry rz
    limits (-90.0 60.0)
           (-90.0 90.0)
           (-90.0 90.0)
  end
  begin
     id 26 
     name rradius
     direction -1 -4.48955e-011 8.88542e-027   
     length 3.10567   
     axis 180 30 90   XYZ
    dof rx
    limits (-10.0 170.0)
  end
  begin
     id 27 
     name rwrist
     direction -1 -4.48994e-011 1.5779e-026   
     length 1.55283   
     axis -1.15221e-014 -90 -90   XYZ
    dof ry
    limits (-180.0 0.0)
  end
  begin
     id 28
     name rhand
     direction -1 -4.48891e-011 3.1558e-026   
     length 0.498676   
     axis -2.01367e-014 -90 -90   XYZ
    dof rx rz
    limits (-90.0 90.0)
           (-45.0 45.0)
  end
  begin
     id 29
     name rfingers
     direction -1 -4.48972e-011 6.31161e-026   
     length 0.402045   
     axis -4.02734e-014 -90 -90   XYZ
    dof rx
    limits (0.0 90.0)
  end
  begin
     id 30
     name rthumb
     direction -0.707107 -6.34849e-011 0.707107   
     length 0.577259   
     axis -90 -45 -2.85299e-015   XYZ
    dof rx rz
    limits (-45.0 45.0)
           (-45.0 45.0)
  end
:hierarchy
  begin
    root lhipjoint rhipjoint lowerback
    lhipjoint lfemur
    lfemur ltibia
    ltibia lfoot
    lfoot ltoes
    rhipjoint rfemur
    rfemur rtibia
    rtibia rfoot
    rfoot rtoes
    lowerback upperback
    upperback thorax
    thorax lowerneck lclavicle rclavicle
    lowerneck upperneck
    upperneck head
    lclavicle lhumerus
    lhumerus lradius
    lradius lwrist
    lwrist lhand lthumb
    lhand lfingers
    rclavicle rhumerus
    rhumerus rradius
    rradius rwrist
    rwrist rhand rthumb
    rhand rfingers
  end

#!OML:ASF H:\Pregnant\Project 1\Capture day 1\Session 1\femalepreg.ASF
:FULLY-SPECIFIED
:DEGREES
253
root 3.344 8.51342 23.1081 102.042 -74.9784 -69.2575
lowerback 31.6257 3.97474 -3.34286
upperback 11.1645 1.79382 -9.35124
thorax -4.06367 0.506604 -8.62518
lowerneck -29.5003 6.7085 12.2152
upperneck -7.66532 3.90486 1.1923
head 2.03159 1.32583 -1.12638
rclavicle -7.63333e-014 -6.20208e-014
rhumerus 28.0842 23.6743 -91.642
rradius 30.1039
rwrist 1.22674
rhand -54.9799 -24.2215
rfingers 7.12502
rthumb -27.3609 -52.2554
lclavicle -7.63333e-014 -6.20208e-014
lhumerus 24.6067 8.18448 48.2436
lradius 28.0253
lwrist 43.8154
lhand -49.0168 -0.369621
lfingers 7.12502
lthumb -21.6451 28.4405
rfemur -103.712 -25.7138 39.0016
rtibia 132.342
rfoot -35.5272 22.1521
rtoes -13.1359
lfemur -117.335 51.6154 -24.1699
ltibia 139.279
lfoot 54.3197 -63.4348
ltoes 34.0031
254
root 3.32759 8.50091 23.1462 103.159 -74.893 -70.6671
lowerback 31.7256 4.07609 -3.30642
upperback 11.1655 1.90295 -9.38417
thorax -4.08748 0.555321 -8.71961
lowerneck -29.5353 6.67353 12.0743
upperneck -7.66977 3.90206 1.17862
head 2.03346 1.32794 -1.10982
rclavicle 2.22639e-014 1.26427e-013
rhumerus 28.001 23.7954 -91.525
rradius 29.9557
rwrist 1.02697
rhand -54.9293 -24.197
rfingers 7.12502
rthumb -27.3125 -52.2385
lclavicle 2.22639e-014 1.26427e-013
lhumerus 24.3316 8.04978 48.3099
lradius 28.2295
lwrist 43.7799
lhand -49.2123 -0.489013
lfingers 7.12502
lthumb -21.8329 28.2994
rfemur -103.264 -25.7221 38.6552
rtibia 132.327
rfoot -35.5587 22.2031
rtoes -13.5715
lfemur -116.212 51.946 -23.4268
ltibia 139.25
lfoot 56.6245 -63.2292
ltoes 35.6154
255
root 3.31245 8.48616 23.1852 104.196 -74.7951 -71.9538
lowerback 31.7828 4.14853 -3.23092
upperback 11.1653 1.99468 -9.41558
thorax -4.09751 0.59742 -8.82677
lowerneck -29.5792 6.63806 11.9328
upperneck -7.67478 3.8965 1.1704
head 2.03591 1.32858 -1.09151
rclavicle -6.04305e-014 -3.29983e-014
rhumerus 27.9228 23.9191 -91.41
rradius 29.7945
rwrist 0.862573
rhand -54.8876 -24.1219
rfingers 7.12502
rthumb -27.2726 -52.1698
lclavicle -6.04305e-014 -3.29983e-014
lhumerus 24.0267 7.89672 48.3525
lradius 28.4496
lwrist 43.8001
lhand -49.4011 -0.627707
lfingers 7.12502
lthumb -22.0141 28.1394
rfemur -102.906 -25.7639 38.3412
rtibia 132.329
rfoot -35.5809 22.2961
rtoes -14.0164
lfemur -115.247 52.2006 -22.8028
ltibia 139.291
lfoot 58.163 -63.0808
ltoes 36.7084
256
root 3.29782 8.47011 23.2235 105.327 -74.6723 -73.31
lowerback 31.7983 4.22803 -3.16228
upperback 11.1634 2.09934 -9.43434
thorax -4.09126 0.645706 -8.91913
lowerneck -29.6406 6.60145 11.782
upperneck -7.68049 3.88884 1.16573
head 2.03987 1.32812 -1.07059
rclavicle 2.54444e-014 3.45885e-014
rhumerus 27.8594 24.044 -91.2982
rradius 29.6033
rwrist 0.750886
rhand -54.8732 -23.9382
rfingers 7.12502
rthumb -27.2589 -51.9882
lclavicle 2.54444e-014 3.45885e-014
lhumerus 23.6976 7.72436 48.3671
lradius 28.6785
lwrist 43.8932
lhand -49.5708 -0.772614
lfingers 7.12502
lthumb -22.1771 27.9753
rfemur -102.579 -25.7243 38.034
rtibia 132.333
rfoot -35.5783 22.3831
rtoes -14.4482
lfemur -114.438 52.561 -22.3182
ltibia 139.384
lfoot 59.2739 -63.0469
ltoes 37.3809
257
root 3.28561 8.45167 23.2662 105.957 -74.5773 -74.1465
lowerback 31.8503 4.2133 -2.97483
upperback 11.1744 2.1224 -9.45855
thorax -4.09412 0.658586 -9.0571
lowerneck -29.7063 6.56185 11.626
upperneck -7.69375 3.87767 1.16772
head 2.04156 1.32554 -1.04711
rclavicle 9.22361e-014 1.78906e-014
rhumerus 27.8 24.1619 -91.1961
rradius 29.389
rwrist 0.693261
rhand -54.8851 -23.6881
rfingers 7.12502
rthumb -27.2702 -51.7363
lclavicle 9.22361e-014 1.78906e-014
lhumerus 23.3567 7.54063 48.3712
lradius 28.8951
lwrist 44.0139
lhand -49.7333 -0.930578
lfingers 7.12502
lthumb -22.3331 27.7987
rfemur -102.366 -26.028 37.7821
rtibia 132.365
rfoot -35.6065 22.6512
rtoes -14.9056
lfemur -113.587 52.4012 -21.7503
ltibia 139.516
lfoot 59.5805 -62.8294
ltoes 37.7088
258
root 3.27534 8.43104 23.3118 106.273 -74.5054 -74.6502
lowerback 31.9153 4.13746 -2.71321
upperback 11.1935 2.09382 -9.48206
thorax -4.09923 0.649155 -9.21871
lowerneck -29.7743 6.51999 11.4716
upperneck -7.71202 3.86224 1.1698
head 2.04173 1.3202 -1.02429
rclavicle 1.90833e-014 7.95139e-014
rhumerus 27.7409 24.2712 -91.0988
rradius 29.1531
rwrist 0.677717
rhand -54.936 -23.3304
rfingers 7.12502
rthumb -27.3189 -51.371
lclavicle 1.90833e-014 7.95139e-014
lhumerus 23.0136 7.34736 48.3799
lradius 29.0888
lwrist 44.1519
lhand -49.8868 -1.07927
lfingers 7.12502
lthumb -22.4804 27.6323
rfemur -102.245 -26.559 37.5649
rtibia 132.418
rfoot -35.6452 23.0519
rtoes -15.3741
lfemur -112.739 51.8525 -21.1533
ltibia 139.672
lfoot 59.2474 -62.4771
ltoes 37.5095
259
root 3.26666 8.40942 23.3603 106.26 -74.4624 -74.8406
lowerback 32.0379 4.0069 -2.3848
upperback 11.2221 2.01392 -9.50574
thorax -4.12282 0.6167 -9.40266
lowerneck -29.8449 6.47258 11.3169
upperneck -7.7316 3.8385 1.1813
head 2.04127 1.31079 -0.999172
rclavicle -1.59028e-014 2.66371e-014
rhumerus 27.6783 24.3739 -91.0011
rradius 28.9082
rwrist 0.677727
rhand -55.0411 -23.1139
rfingers 7.12502
rthumb -27.4195 -51.1386
lclavicle -1.59028e-014 2.66371e-014
lhumerus 22.673 7.14964 48.4042
lradius 29.256
lwrist 44.2713
lhand -50.0616 -1.21834
lfingers 7.12502
lthumb -22.6483 27.4728
rfemur -102.159 -27.3386 37.3604
rtibia 132.481
rfoot -35.6862 23.6272
rtoes -15.7549
lfemur -111.805 50.8853 -20.4733
ltibia 139.82
lfoot 58.7156 -61.8835
ltoes 37.1925
260
root 3.25787 8.38817 23.4085 106.323 -74.413 -75.134
lowerback 32.1844 3.89232 -2.06822
upperback 11.2457 1.94795 -9.52637
thorax -4.15951 0.589979 -9.58252
lowerneck -29.9 6.42057 11.1762
upperneck -7.75818 3.80637 1.19525
head 2.03658 1.29641 -0.97654
rclavicle 6.36111e-015 8.46823e-014
rhumerus 27.6044 24.4544 -90.923
rradius 28.6526
rwrist 0.692102
rhand -55.228 -23.4784
rfingers 7.12502
rthumb -27.5982 -51.4746
lclavicle 6.36111e-015 8.46823e-014
lhumerus 22.3344 6.94071 48.4342
lradius 29.4026
lwrist 44.3916
lhand -50.2328 -1.34285
lfingers 7.12502
lthumb -22.8125 27.3281
rfemur -102.03 -28.0855 37.1237
rtibia 132.53
rfoot -35.6842 24.2643
rtoes -16.0028
lfemur -110.841 49.9007 -19.7965
ltibia 139.937
lfoot 58.7187 -61.1026
ltoes 37.0142
261
root 3.24838 8.36786 23.4556 106.551 -74.3532 -75.6288
lowerback 32.3549 3.81491 -1.7966
upperback 11.2663 1.91185 -9.53838
thorax -4.20477 0.575453 -9.73891
lowerneck -29.9621 6.36306 11.0351
upperneck -7.77712 3.7651 1.2251
head 2.0345 1.27844 -0.949364
rclavicle -1.27222e-014 -1.56245e-013
rhumerus 27.5297 24.5279 -90.8466
rradius 28.3963
rwrist 0.697014
rhand -55.4364 -23.9678
rfingers 7.12502
rthumb -27.7975 -51.932
lclavicle -1.27222e-014 -1.56245e-013
lhumerus 22.002 6.73918 48.4811
lradius 29.5309
lwrist 44.5085
lhand -50.3796 -1.42787
lfingers 7.12502
lthumb -22.9534 27.2257
rfemur -101.827 -28.736 36.8351
rtibia 132.56
rfoot -35.6222 24.9463
rtoes -16.0718
lfemur -109.821 48.9895 -19.1253
ltibia 140.003
lfoot 59.4011 -60.1615
ltoes 37.0111
262
root 3.23729 8.34979 23.5002 107.064 -74.268 -76.4715
lowerback 32.5664 3.80351 -1.60178
upperback 11.2815 1.92872 -9.53853
thorax -4.2641 0.58273 -9.85882
lowerneck -30.0189 6.30517 10.9107
upperneck -7.79664 3.71816 1.25489
head 2.03161 1.25696 -0.925382
rclavicle 1.27222e-014 -1.19271e-014
rhumerus 27.4513 24.5903 -90.776
rradius 28.1454
rwrist 0.698236
rhand -55.6511 -24.8625
rfingers 7.12502
rthumb -28.0027 -52.7934
lclavicle 1.27222e-014 -1.19271e-014
lhumerus 21.6764 6.55534 48.5451
lradius 29.6425
lwrist 44.6164
lhand -50.4784 -1.46066
lfingers 7.12502
lthumb -23.0482 27.1811
rfemur -101.482 -29.1977 36.4688
rtibia 132.555
rfoot -35.4912 25.6302
rtoes -15.9528
lfemur -108.663 48.281 -18.4251
ltibia 139.995
lfoot 61.0108 -59.0355
ltoes 37.4108
263
root 3.22606 8.33241 23.545 107.515 -74.1896 -77.3031
lowerback 32.8451 3.78988 -1.39977
upperback 11.3018 1.93798 -9.54314
thorax -4.34384 0.585425 -9.98731
lowerneck -30.0697 6.24396 10.7983
upperneck -7.81937 3.6633 1.29216
head 2.02673 1.23121 -0.901671
rclavicle 9.85972e-014 1.66979e-014
rhumerus 27.3688 24.6414 -90.7108
rradius 27.9063
rwrist 0.688538
rhand -55.8104 -25.5109
rfingers 7.12502
rthumb -28.155 -53.4169
lclavicle 9.85972e-014 1.66979e-014
lhumerus 21.3508 6.35601 48.5901
lradius 29.7506
lwrist 44.7462
lhand -50.5353 -1.45495
lfingers 7.12502
lthumb -23.1028 27.18
rfemur -101.07 -29.7121 36.0637
rtibia 132.538
rfoot -35.3498 26.3736
rtoes -15.7744
lfemur -107.358 47.3875 -17.6692
ltibia 139.915
lfoot 62.9184 -57.6097
ltoes 37.8987
264
root 3.21391 8.31431 23.5864 108.331 -74.0781 -78.4871
lowerback 33.0567 3.84088 -1.27848
upperback 11.3129 2.00783 -9.53918
thorax -4.3988 0.615148 -10.08
lowerneck -30.1248 6.18725 10.703
upperneck -7.83909 3.60736 1.32924
head 2.02341 1.20437 -0.880574
rclavicle 9.54166e-015 6.20208e-014
rhumerus 27.2871 24.6818 -90.6545
rradius 27.6672
rwrist 0.686875
rhand -55.9058 -25.6332
rfingers 7.12502
rthumb -28.2462 -53.524
lclavicle 9.54166e-015 6.20208e-014
lhumerus 21.025 6.13861 48.6175
lradius 29.8535
lwrist 44.8913
lhand -50.5489 -1.37021
lfingers 7.12502
lthumb -23.1158 27.2631
rfemur -100.645 -29.9643 35.6315
rtibia 132.523
rfoot -35.1509 27.0262
rtoes -15.538
lfemur -106.103 46.7547 -17.0208
ltibia 139.784
lfoot 64.3187 -56.4069
ltoes 36.9409
265
root 3.20295 8.29264 23.6275 109.128 -73.9741 -79.5987
lowerback 33.1956 3.8746 -1.14614
upperback 11.3211 2.06789 -9.54052
thorax -4.43031 0.641778 -10.1792
lowerneck -30.1833 6.13453 10.6179
upperneck -7.85228 3.55201 1.37463
head 2.02257 1.17819 -0.858084
rclavicle -1.20861e-013 8.26944e-014
rhumerus 27.2007 24.7194 -90.6106
rradius 27.4274
rwrist 0.696223
rhand -55.9208 -25.1518
rfingers 7.12502
rthumb -28.2605 -53.0403
lclavicle -1.20861e-013 8.26944e-014
lhumerus 20.6899 5.90544 48.6242
lradius 29.9489
lwrist 45.0316
lhand -50.5418 -1.26545
lfingers 7.12502
lthumb -23.109 27.3687
rfemur -100.346 -30.2399 35.2393
rtibia 132.549
rfoot -34.9676 27.6453
rtoes -15.4388
lfemur -104.961 45.9221 -16.49
ltibia 139.623
lfoot 61.4208 -57.1839
ltoes 31.1666
